<svg version="1.1" xmlns="http://www.w3.org/2000/svg" style="display: block;" viewBox="0 0 2048 2048" width="1254" height="1254" preserveAspectRatio="none">
<path transform="translate(0,0)" fill="rgb(0,0,0)" d="M 0 0 L 2048 0 L 2048 2048 L 0 2048 L 0 0 z"/>
<path transform="translate(0,0)" fill="rgb(254,254,254)" d="M 419.48 747.084 C 457.883 628.861 534.566 538.654 645.748 481.92 C 774.474 417.028 923.502 405.154 1060.88 448.843 C 1203.52 495.342 1325.5 610.588 1359.28 760.545 C 1361.88 772.079 1364.2 785.394 1364.28 797.264 C 1333.59 791.108 1311.72 786.879 1280.05 784.721 C 1179.8 777.535 1079.98 803.616 996.051 858.92 C 877.856 937.664 806.701 1069.48 823.528 1212.68 C 826.087 1234.49 832.14 1259.13 839.063 1279.91 C 840.319 1283.67 842.536 1289.16 842.23 1292.92 C 828.911 1302.02 764.814 1276.5 745.03 1284.5 C 730.151 1290.52 718.617 1302.56 704.93 1310.93 C 665.475 1335.04 606.808 1355.37 560.218 1347.54 C 552.338 1346.21 540.966 1339.48 537.159 1332.28 C 526.43 1311.99 543.87 1294.16 552.969 1277.53 C 557.839 1268.72 561.696 1259.39 564.465 1249.71 C 582.713 1185.29 544.361 1170.42 508.537 1131.16 C 487.529 1107.92 469.141 1082.43 453.704 1055.17 C 400.135 959.377 389.726 852.137 419.48 747.084 z"/>
<path transform="translate(0,0)" fill="rgb(227,227,226)" d="M 419.48 747.084 C 423.605 754.789 419.137 776.337 418.718 785.989 C 418.077 800.763 417.384 815.489 418.124 830.338 C 425.459 1001.15 524.798 1117.14 680.393 1177.72 C 701.806 1186.06 805.165 1222.11 822.304 1216.31 C 822.677 1215.24 823.251 1213.74 823.528 1212.68 C 826.087 1234.49 832.14 1259.13 839.063 1279.91 C 840.319 1283.67 842.536 1289.16 842.23 1292.92 C 828.911 1302.02 764.814 1276.5 745.03 1284.5 C 730.151 1290.52 718.617 1302.56 704.93 1310.93 C 665.475 1335.04 606.808 1355.37 560.218 1347.54 C 552.338 1346.21 540.966 1339.48 537.159 1332.28 C 526.43 1311.99 543.87 1294.16 552.969 1277.53 C 557.839 1268.72 561.696 1259.39 564.465 1249.71 C 582.713 1185.29 544.361 1170.42 508.537 1131.16 C 487.529 1107.92 469.141 1082.43 453.704 1055.17 C 400.135 959.377 389.726 852.137 419.48 747.084 z"/>
<path transform="translate(0,0)" fill="rgb(0,0,0)" d="M 705.95 691.46 C 738.326 688.588 766.909 712.483 769.821 744.855 C 772.734 777.226 748.876 805.84 716.508 808.794 C 684.081 811.754 655.405 787.843 652.487 755.412 C 649.569 722.982 673.516 694.336 705.95 691.46 z"/>
<path transform="translate(0,0)" fill="rgb(0,0,0)" d="M 1045.05 652.547 C 1076.53 648.057 1105.64 670.049 1109.93 701.553 C 1114.22 733.057 1092.04 762.029 1060.51 766.112 C 1029.26 770.158 1000.61 748.224 996.362 717.006 C 992.115 685.788 1013.86 656.996 1045.05 652.547 z"/>
<path transform="translate(0,0)" fill="rgb(0,0,0)" d="M 935.577 776.384 C 943.178 775.243 951.83 775.755 952.581 785.369 C 956.913 840.837 904.715 874.768 856.822 847.227 C 856.475 847.002 856.127 846.777 855.78 846.553 C 841.333 836.885 831.469 821.73 828.477 804.607 C 827.493 799.276 827.818 795.947 830.952 791.636 C 840.708 786.143 918.825 778.393 935.577 776.384 z"/>
<path transform="translate(0,0)" fill="rgb(254,254,254)" d="M 863.597 1130.54 C 915.361 789.872 1394.76 721.294 1582.85 984.175 C 1619.99 1036.08 1649.06 1109.09 1644.25 1173.69 C 1644.36 1241.09 1620.75 1304.32 1583.2 1359.58 C 1571.28 1377.13 1552.46 1392.8 1549.66 1414.81 C 1543.83 1460.52 1596.37 1489.54 1593.73 1516.48 C 1593.07 1523.27 1589.23 1529.23 1583.82 1533.3 C 1565.93 1546.74 1522.66 1538.46 1502.9 1533.08 C 1485.73 1528.31 1469.04 1521.94 1453.05 1514.07 C 1444.58 1509.99 1436.38 1505.07 1428.15 1500.49 C 1400 1484.81 1370.04 1498.47 1341.5 1506.26 C 1331.54 1508.92 1321.46 1511.13 1311.3 1512.87 C 1270.13 1519.99 1228.16 1521.11 1186.68 1516.2 C 1085.43 1503.68 993.2 1451.74 930.014 1371.64 C 876.345 1303.48 852.404 1216.57 863.597 1130.54 z"/>
<path transform="translate(0,0)" fill="rgb(227,227,226)" d="M 1644.25 1173.69 C 1644.36 1241.09 1620.75 1304.32 1583.2 1359.58 C 1571.28 1377.13 1552.46 1392.8 1549.66 1414.81 C 1543.83 1460.52 1596.37 1489.54 1593.73 1516.48 C 1593.07 1523.27 1589.23 1529.23 1583.82 1533.3 C 1565.93 1546.74 1522.66 1538.46 1502.9 1533.08 C 1485.73 1528.31 1469.04 1521.94 1453.05 1514.07 C 1444.58 1509.99 1436.38 1505.07 1428.15 1500.49 C 1400 1484.81 1370.04 1498.47 1341.5 1506.26 C 1331.54 1508.92 1321.46 1511.13 1311.3 1512.87 C 1270.13 1519.99 1228.16 1521.11 1186.68 1516.2 C 1085.43 1503.68 993.2 1451.74 930.014 1371.64 C 876.345 1303.48 852.404 1216.57 863.597 1130.54 C 864.146 1135.27 864.188 1134.04 865.354 1137.81 C 868.383 1147.59 870.548 1160.05 872.71 1170.22 C 875.934 1185.57 880.032 1200.73 884.984 1215.62 C 957.923 1430.86 1217.06 1493.96 1410.94 1411 C 1496.6 1374.35 1566.2 1320.33 1612.68 1238.15 C 1619.63 1225.86 1638.59 1179.99 1644.25 1173.69 z"/>
<path transform="translate(0,0)" fill="rgb(0,0,0)" d="M 1091.63 1077.45 C 1120.4 1075.43 1145.34 1097.18 1147.25 1125.96 C 1149.16 1154.74 1127.31 1179.6 1098.52 1181.39 C 1069.89 1183.17 1045.22 1161.47 1043.32 1132.85 C 1041.42 1104.23 1063.02 1079.47 1091.63 1077.45 z"/>
<path transform="translate(0,0)" fill="rgb(0,0,0)" d="M 1398.4 1077.52 C 1426.7 1075.22 1451.61 1096.03 1454.37 1124.29 C 1457.13 1152.54 1436.71 1177.78 1408.51 1180.99 C 1389.86 1183.12 1371.51 1175.02 1360.51 1159.81 C 1349.51 1144.6 1347.56 1124.64 1355.41 1107.59 C 1363.26 1090.54 1379.69 1079.05 1398.4 1077.52 z"/>
<path transform="translate(0,0)" fill="rgb(0,0,0)" d="M 1200.8 1170 C 1203.04 1169.98 1205.37 1169.87 1207.58 1170.19 C 1218.11 1171.69 1219.11 1192.01 1224.28 1199.5 C 1228.38 1205.43 1234.32 1209.09 1241.37 1210.4 C 1281.17 1217.82 1273.34 1178.25 1286.09 1171.26 C 1289.04 1169.64 1292.33 1169.33 1295.57 1170.18 C 1299.29 1171.16 1302.1 1173.99 1303.79 1177.37 C 1307.43 1184.67 1303.62 1194.66 1301.33 1201.89 C 1277.89 1258.41 1190.65 1243.4 1192.23 1180.9 C 1192.35 1175.89 1197.05 1172.45 1200.8 1170 z"/>
<path transform="translate(0,0)" fill="rgb(254,254,254)" d="M 1586.8 623.141 C 1615.62 621.443 1622.89 651.235 1604.94 667.935 C 1583.34 688.03 1552.34 713.144 1526.98 727.757 C 1505.86 738.021 1493.41 717.282 1506.55 699.245 C 1525.42 673.342 1554.84 631.23 1586.8 623.141 z"/>
<path transform="translate(0,0)" fill="rgb(254,254,254)" d="M 1602.57 774.408 C 1619.76 772.989 1646.13 772.259 1658.97 785.693 C 1667.63 794.749 1669.02 809.72 1658.63 818.175 C 1644.43 829.728 1621.23 825.28 1604.06 823.718 C 1587.56 820.807 1542.36 823.195 1539.09 802.176 C 1538.48 797.988 1539.68 793.737 1542.38 790.484 C 1552.03 778.721 1587.45 775.776 1602.57 774.408 z"/>
<path transform="translate(0,0)" fill="rgb(254,254,254)" d="M 1431.43 585.037 C 1470.18 583.418 1454.53 638.122 1451.71 661.698 C 1450.17 674.581 1446.71 691.263 1436.28 699.697 C 1408.11 708.366 1412.18 665.119 1411.38 648.081 C 1410.6 631.694 1411.8 611.531 1416.85 596.13 C 1418.81 590.168 1426.07 587.109 1431.43 585.037 z"/>
<path transform="translate(0,0)" fill="rgb(254,254,254)" d="M 730.743 1398 C 760.685 1395.74 741.238 1424.39 729.61 1434.24 C 710.767 1450.21 689.87 1481.23 664.128 1485.11 C 649.051 1481.75 640.703 1467.37 648.687 1454.43 C 662.452 1432.12 706.072 1406.74 730.743 1398 z"/>
<path transform="translate(0,0)" fill="rgb(254,254,254)" d="M 787.047 1436.01 C 794.156 1435.89 802.446 1439.15 802.208 1447.48 C 801.457 1473.76 791.561 1503.92 781.347 1528.07 C 777.236 1537.8 769.403 1540.77 759.942 1541.38 C 744.015 1536.22 741.197 1521.52 745.95 1507.1 C 751.715 1489.61 771.523 1444.95 787.047 1436.01 z"/>
</svg>