<svg version="1.1" xmlns="http://www.w3.org/2000/svg" style="display: block;" viewBox="0 0 2048 2048" width="1254" height="1254" preserveAspectRatio="none">
<defs>
	<linearGradient id="Gradient1" gradientUnits="userSpaceOnUse" x1="807.77" y1="1285.02" x2="810.231" y2="1068.89">
		<stop class="stop0" offset="0" stop-opacity="1" stop-color="rgb(48,29,20)"/>
		<stop class="stop1" offset="1" stop-opacity="1" stop-color="rgb(19,23,25)"/>
	</linearGradient>
	<linearGradient id="Gradient2" gradientUnits="userSpaceOnUse" x1="1257.31" y1="1283.49" x2="1224.59" y2="1069.83">
		<stop class="stop0" offset="0" stop-opacity="1" stop-color="rgb(48,29,21)"/>
		<stop class="stop1" offset="1" stop-opacity="1" stop-color="rgb(18,23,25)"/>
	</linearGradient>
	<linearGradient id="Gradient3" gradientUnits="userSpaceOnUse" x1="1567.21" y1="1110.04" x2="1778.57" y2="1052.47">
		<stop class="stop0" offset="0" stop-opacity="1" stop-color="rgb(22,21,22)"/>
		<stop class="stop1" offset="1" stop-opacity="1" stop-color="rgb(50,50,49)"/>
	</linearGradient>
</defs>
<path transform="translate(0,0)" fill="rgb(255,255,255)" d="M 0 0 L 2048 0 L 2048 2048 L 0 2048 L 0 0 z"/>
<path transform="translate(0,0)" fill="rgb(247,108,33)" d="M 809.66 619.574 C 801.607 599.748 794.129 580.653 789.466 559.661 C 775.568 497.089 783.243 434.718 807.913 376.097 C 840.497 298.548 902.513 237.091 980.355 205.212 C 1010.57 192.966 1047.23 184.343 1079.61 183.713 C 996.166 257.205 937.315 368.712 930.307 480.143 C 929.924 486.346 929.708 492.558 929.66 498.772 C 936.057 479.221 942.328 461.506 951.664 443.132 C 1015.14 318.21 1169.33 253.871 1303.35 295.853 C 1188.69 326.55 1125.1 400.941 1074.29 502.652 C 1134.05 447.017 1207.49 424.348 1288.36 442.11 C 1311.77 447.25 1325.74 454.779 1346.69 465.798 C 1271.78 471.999 1202.2 505.438 1153.52 563.135 C 1151.68 565.321 1149.87 567.526 1148.07 569.749 C 1203.78 540.371 1245.23 537.063 1305.79 546.891 C 1286.15 554.216 1273.76 559.224 1255.64 570.473 C 1323.39 575.074 1370.04 596.076 1425.3 633.348 C 1457.77 627.127 1484.58 625.56 1517.27 631.605 C 1495.28 642.955 1482.34 649.948 1462.37 665.387 C 1480.47 677.821 1494.75 688.605 1509.04 705.807 C 1486.01 699.312 1460.37 696.091 1436.58 693.608 L 1437.21 694.296 C 1450 708.047 1466.15 720.149 1480.39 736.142 C 1537.05 799.775 1567.59 859.531 1592.67 939.486 C 1547.11 971.376 1550.91 1015.45 1552.44 1065.62 C 1554.44 1131.24 1535.61 1207.65 1611.83 1237.25 C 1607.25 1257.97 1599.54 1277.86 1588.98 1296.26 C 1571.19 1289.97 1550.61 1284.51 1531.66 1283.61 C 1546.03 1270.78 1555.29 1262.27 1568.28 1247.76 C 1503.55 1233.06 1443.19 1248.24 1383.28 1272.42 C 1396.09 1255.94 1406.58 1239.47 1411.61 1218.82 C 1424.88 1158.91 1412.51 1099.43 1371.28 1052.94 C 1326.59 1002.54 1249.45 995.863 1200.45 1043.98 C 1162.1 1081.64 1148.7 1133.78 1147.84 1186.14 C 1147.78 1228.45 1158.94 1265.92 1187.2 1297.77 C 1165.92 1292.52 1145.87 1288.71 1124.06 1286.18 C 1119.58 1285.66 1109.43 1277.96 1104.52 1275.9 C 1055.97 1255.49 1000.5 1255.3 951.265 1273.55 C 942.454 1276.81 933.297 1284.08 924.402 1286.35 C 917.005 1288.24 907.5 1289.01 899.815 1290.34 C 887.264 1292.51 875.212 1295.21 862.832 1298.18 C 893.104 1267.19 901.993 1227.11 903.085 1185.18 C 903.081 1173.81 901.79 1160.47 900.428 1149.22 C 892.26 1103.63 874.556 1059.3 835.248 1031.76 C 810.476 1014.22 779.657 1007.48 749.826 1013.06 C 671.331 1027.48 629.057 1112.74 634.496 1186.81 C 635.316 1197.98 637.308 1209.13 639.352 1220.14 C 646.379 1240.73 653.853 1256.23 667.755 1272.89 C 605.978 1248.81 548.809 1232.93 481.645 1247.87 C 493.724 1261.22 505.069 1271.65 518.464 1283.73 C 489.617 1287.23 465.547 1291.94 439.118 1305.34 C 460.246 1321.97 476.437 1330.27 500.48 1341.53 C 483.211 1346.16 466.38 1351.25 450.34 1359.4 C 479.95 1382.37 513.152 1400.28 548.603 1412.41 C 527.497 1419.32 518.018 1422.73 498.71 1434.44 C 526.051 1456.96 553.969 1480.25 583.256 1500.18 C 696.952 1577.55 837.319 1641.16 971.947 1669.39 C 968.712 1671.26 967.972 1671.14 964.339 1671.49 C 906.466 1665.42 849.14 1654.95 792.859 1640.16 C 656.538 1603.88 487.812 1528.47 376.834 1441.11 C 388.531 1438.47 401.008 1434.98 412.656 1431.88 C 401.009 1426.4 388.045 1421.99 376.067 1416.63 C 342.195 1401.88 310.874 1381.85 283.272 1357.3 C 310.858 1348.97 328.395 1339.27 351.04 1321.57 C 307.613 1304.73 277.18 1285.95 246.904 1250.11 L 248.892 1250.1 C 305.964 1249.61 349.189 1223.46 388.293 1183.79 C 355.333 1182.11 334.672 1178.93 303.941 1165.81 C 311.395 1161.26 318.694 1156.46 325.826 1151.41 C 366.474 1122.73 396.046 1080.97 409.602 1033.11 C 414.299 1016.57 416.897 999.609 419.678 982.665 C 329.324 836.076 284.166 645.41 296.806 473.496 C 303.832 416.775 307.718 327.752 347.083 283.929 C 367.128 261.615 424.243 286.047 446.987 297.51 C 561.714 355.33 660.818 452.308 741.553 551.19 C 767.917 580.537 781.416 593.201 809.66 619.574 z"/>
<path transform="translate(0,0)" fill="rgb(25,24,24)" d="M 419.678 982.665 C 329.324 836.076 284.166 645.41 296.806 473.496 C 303.832 416.775 307.718 327.752 347.083 283.929 C 367.128 261.615 424.243 286.047 446.987 297.51 C 561.714 355.33 660.818 452.308 741.553 551.19 C 731.161 556.586 717.656 562.067 706.526 567.587 C 687.304 577.175 668.684 587.92 650.766 599.766 C 606.003 544.324 559.612 490.227 507.59 441.423 C 500.605 434.87 492.086 426.451 484.388 420.914 C 469.05 404.788 419.663 362.666 398.254 361.985 C 394.649 361.871 391.802 363.011 389.208 365.517 C 365.765 388.171 360.32 519.466 360.958 552.516 C 363.394 678.761 394.763 799.849 444.323 915.403 C 442.798 920.478 440.75 925.337 438.649 930.195 C 431.244 947.313 425.509 964.955 419.678 982.665 z"/>
<path transform="translate(0,0)" fill="rgb(255,255,255)" d="M 444.323 915.403 C 394.763 799.849 363.394 678.761 360.958 552.516 C 360.32 519.466 365.765 388.171 389.208 365.517 C 391.802 363.011 394.649 361.871 398.254 361.985 C 419.663 362.666 469.05 404.788 484.388 420.914 C 502.063 445.174 518.343 465.263 535.817 490.74 C 571.518 543.871 602.264 600.17 627.666 658.927 C 587.329 637.267 564.311 627.304 518.147 621.395 C 553.523 649.347 576.018 674.029 601.272 710.841 C 569.987 707.152 541.86 705.294 511.205 715.617 C 534.681 729.309 553.537 744.239 570.182 766.002 L 539.034 766.028 C 515.029 797.874 492.809 831.027 472.476 865.334 C 464.104 879.447 452.299 903.159 444.323 915.403 z"/>
<path transform="translate(0,0)" fill="rgb(25,24,24)" d="M 1147.84 1186.14 C 1142.35 1172.41 1148.86 1123.05 1152.48 1107.98 C 1155.53 1095.77 1159.57 1083.84 1164.55 1072.28 C 1180.1 1036.04 1205.53 1004.39 1242.93 989.481 C 1272.7 977.694 1305.95 978.297 1335.28 991.154 C 1418.09 1026.95 1445.82 1135.14 1414.56 1214.44 C 1413.66 1216.72 1413.41 1217.23 1411.61 1218.82 C 1424.88 1158.91 1412.51 1099.43 1371.28 1052.94 C 1326.59 1002.54 1249.45 995.863 1200.45 1043.98 C 1162.1 1081.64 1148.7 1133.78 1147.84 1186.14 z"/>
<path transform="translate(0,0)" fill="rgb(25,24,24)" d="M 639.352 1220.14 C 629.5 1205.22 625.825 1173.64 624.13 1154.73 C 613.39 1034.86 739.67 923.439 845.317 1013.34 C 879.039 1042.04 901.891 1099.28 903.802 1145.12 L 901.477 1145.94 L 900.428 1149.22 C 892.26 1103.63 874.556 1059.3 835.248 1031.76 C 810.476 1014.22 779.657 1007.48 749.826 1013.06 C 671.331 1027.48 629.057 1112.74 634.496 1186.81 C 635.316 1197.98 637.308 1209.13 639.352 1220.14 z"/>
<path transform="translate(0,0)" fill="rgb(1,1,1)" d="M 900.428 1149.22 L 901.477 1145.94 L 903.802 1145.12 C 904.879 1161.88 905.674 1168.43 903.085 1185.18 C 903.081 1173.81 901.79 1160.47 900.428 1149.22 z"/>
<path transform="translate(0,0)" fill="rgb(25,24,24)" d="M 770.947 826.425 C 789.941 825.468 807.949 828.393 827.863 835.46 C 857.163 845.857 885.785 878.401 877.459 911.535 C 875.944 917.02 866.912 920.974 861.939 919.452 C 802.739 901.338 764.132 889.991 702.393 914.96 C 671.064 929.228 652.15 945.616 628.105 969.108 C 625.576 886.688 691.798 830.251 770.947 826.425 z"/>
<path transform="translate(0,0)" fill="rgb(25,24,24)" d="M 1266.83 826.425 C 1269.22 826.271 1271.62 826.184 1274.01 826.166 C 1355.69 825.731 1423.48 885.532 1423.03 968.994 C 1403 949.076 1382.43 932.549 1357.51 919.006 C 1310.14 893.277 1252.96 896.963 1203.62 915.542 C 1155.59 933.626 1170.61 879.666 1188.5 859.058 C 1208.67 835.832 1235.72 828.831 1266.83 826.425 z"/>
<path transform="translate(0,0)" fill="rgb(25,24,24)" d="M 1320.7 549.201 C 1395.77 447.096 1506 338.301 1624.21 287.769 C 1644.18 279.235 1672.74 268.85 1693.87 277.967 C 1709.96 284.909 1720.08 304.957 1725.69 320.77 C 1737.06 352.832 1744.09 390.806 1748.39 424.46 C 1766.85 578.453 1742.98 734.565 1679.34 876.003 C 1669.29 852.575 1659.13 829.268 1645.51 807.621 C 1667.51 741.623 1682.22 662.095 1687.16 593.137 C 1691.48 528.438 1689.65 461.478 1674.67 398.185 C 1672.23 387.831 1665.26 359.523 1651.73 362.05 C 1625.18 367.005 1584.12 402.339 1565.82 421.248 L 1565.14 422.264 C 1553.22 439.852 1537.24 458.436 1524.4 476.85 C 1494.13 520.406 1467.36 566.295 1444.35 614.085 C 1432.65 605.132 1421.59 596.951 1408.94 589.275 C 1375.38 569.062 1357.78 562.355 1320.7 549.201 z"/>
<path transform="translate(0,0)" fill="rgb(247,108,33)" d="M 1408.94 589.275 C 1446.65 541.05 1487.52 495.377 1531.27 452.555 C 1539.21 444.837 1557.03 427.252 1565.82 421.248 L 1565.14 422.264 C 1553.22 439.852 1537.24 458.436 1524.4 476.85 C 1494.13 520.406 1467.36 566.295 1444.35 614.085 C 1432.65 605.132 1421.59 596.951 1408.94 589.275 z"/>
<path transform="translate(0,0)" fill="rgb(25,24,24)" d="M 1019.72 1275.43 C 1094.96 1270.95 1180.51 1318.38 1102.56 1392.92 C 1083.59 1411.07 1060.08 1421.28 1034.89 1427.64 C 1034.61 1442.47 1034.57 1457.3 1034.78 1472.13 C 1063.94 1489.69 1098.58 1496.62 1132.16 1490.05 C 1171.25 1482.41 1195.85 1458.6 1217.1 1426.69 C 1214.58 1422.91 1212.56 1419.22 1211.95 1414.74 C 1219.61 1402.4 1241.89 1425.63 1240.95 1436.7 L 1239.43 1437.6 C 1234.15 1436.64 1230.24 1434.6 1225.33 1432.43 C 1210.59 1461.73 1193.07 1478.02 1167.53 1496.25 C 1162.3 1502.29 1157.22 1511.81 1152.68 1518.07 C 1120.53 1562.42 1085.61 1593.11 1029.25 1596.74 C 1015.26 1597.04 1001.31 1595.15 987.917 1591.12 C 951.778 1579.93 922.174 1551.24 900.704 1521.25 C 886.496 1501.4 885.586 1496.13 865.182 1482.52 C 851.285 1473.25 833.364 1447.08 825.437 1432.07 C 821.502 1433.94 814.222 1437.56 809.981 1437.35 C 805.081 1426.85 825.098 1411.78 836.277 1412.66 C 839.277 1414.51 838.309 1413.22 839.219 1416.69 C 838.26 1421.15 836.692 1422.74 834.021 1426.6 C 875.911 1492.92 947.878 1512.84 1016.12 1472.13 L 1016.09 1427.83 C 994.169 1423.25 973.63 1413.03 955.891 1399.33 C 929.285 1379.17 900.977 1338 929.17 1307.09 C 951.049 1283.11 989.096 1277.39 1019.72 1275.43 z"/>
<path transform="translate(0,0)" fill="rgb(247,108,33)" d="M 993.526 1535.41 C 1005.16 1533.98 1013.87 1537.35 1024.96 1538.51 C 1027.61 1538.8 1039.12 1535.32 1042.9 1535.09 C 1064.82 1533.76 1080.89 1538.71 1099.34 1549.02 C 1087.31 1561.82 1075.81 1569.72 1059.11 1575.56 C 1020.37 1589.12 979.55 1578.37 951.099 1549.43 C 966.107 1540.08 976.184 1537.09 993.526 1535.41 z"/>
<path transform="translate(0,0)" fill="rgb(255,255,255)" d="M 1011.53 1301.41 C 1037.19 1298.36 1071.05 1304.44 1093.89 1317.5 C 1068.94 1311.3 1051.88 1310.9 1026.75 1310.97 C 998.759 1310.82 974.218 1311.28 948.286 1322.71 C 967.374 1307.23 987.588 1303.38 1011.53 1301.41 z"/>
<path transform="translate(0,0)" fill="url(#Gradient3)" d="M 1673.83 948.048 C 1703.17 948.518 1727.56 946.55 1749.57 969.589 C 1757.7 978.136 1763.53 988.607 1766.51 1000.02 C 1767.79 1004.96 1768.69 1011.94 1768.74 1016.89 C 1769.2 1057.74 1769.23 1102.57 1768.91 1142.95 C 1768.52 1191.26 1732.58 1217.64 1686.94 1217.25 C 1685.37 1217.23 1684.74 1220.04 1684.46 1221.13 C 1683.43 1217.67 1684.44 1218.53 1682.22 1217.19 C 1671.66 1217.81 1661.57 1218.24 1650.97 1217.97 C 1646.32 1217.86 1640.69 1216.11 1637.33 1217.12 C 1635.8 1216.17 1630.15 1214.57 1628.03 1214.05 C 1605.68 1209.43 1580.74 1183.76 1579.83 1160.19 C 1577.99 1112.14 1578.78 1061.19 1579.32 1012.95 C 1579.67 982.388 1598.55 964.04 1624.23 951.568 C 1642.54 947.428 1655.27 948.024 1673.83 948.048 z"/>
<path transform="translate(0,0)" fill="rgb(247,108,33)" d="M 1738.4 1232.5 C 1763.62 1245.74 1774.76 1248.73 1802.67 1249.92 C 1774.83 1284.53 1755.35 1299.1 1716.93 1320.42 C 1738.74 1338.86 1749.86 1347.03 1777.45 1357.42 C 1735.06 1394.68 1698.57 1412.81 1645.82 1431.6 C 1657.25 1435.01 1668.32 1438.35 1679.91 1441.28 C 1555.68 1543.43 1412.3 1605.9 1255.94 1640.71 C 1228.27 1646.79 1200.41 1651.96 1172.4 1656.24 C 1161.02 1658.03 1140.1 1660.15 1130.48 1662.53 L 1128.3 1660.43 C 1143.56 1657.42 1158.8 1653.18 1173.79 1649.02 C 1266.47 1623.24 1357.07 1590.5 1442.01 1545 C 1457.6 1536.65 1468.75 1527.56 1478.58 1512.73 C 1482.47 1506.82 1485.83 1500.59 1488.61 1494.09 C 1598.16 1447.91 1693.74 1365.92 1708.71 1240.53 C 1720.5 1238.99 1727.47 1237.48 1738.4 1232.5 z"/>
<path transform="translate(0,0)" fill="rgb(25,24,24)" d="M 1637.33 1217.12 C 1640.69 1216.11 1646.32 1217.86 1650.97 1217.97 C 1661.57 1218.24 1671.66 1217.81 1682.22 1217.19 C 1684.44 1218.53 1683.43 1217.67 1684.46 1221.13 C 1680.79 1257.38 1673.64 1284.22 1657.14 1317.21 C 1620.42 1390.62 1543.61 1446.93 1465.89 1471.66 C 1457.15 1517.4 1410.86 1531.55 1369.72 1532.16 C 1352.47 1532.41 1332.98 1524.73 1321.07 1512.19 C 1310.78 1501.16 1305.26 1486.52 1305.7 1471.45 C 1307.16 1416.73 1374.46 1394.85 1419.78 1404.55 C 1434.27 1407.65 1444.35 1416.24 1454.12 1426.81 C 1466.26 1421.83 1477.57 1417.65 1489.49 1411.91 C 1570.38 1372.96 1627.56 1308.8 1637.33 1217.12 z"/>
<path transform="translate(0,0)" fill="url(#Gradient2)" d="M 1233.72 1067.27 C 1342.34 1058.69 1359.59 1269.98 1251.23 1286.84 C 1134.84 1293.08 1126.56 1083.59 1233.72 1067.27 z"/>
<path transform="translate(0,0)" fill="rgb(255,255,255)" d="M 1217.87 1095.13 C 1233.17 1094.57 1245.5 1102.86 1249.87 1117.75 C 1252.64 1127.2 1251.39 1137.39 1246.42 1145.9 C 1240.97 1155.08 1234.08 1158.51 1224.17 1160.84 C 1207.88 1161.27 1195.8 1152.22 1192 1136.21 C 1189.83 1126.93 1191.46 1117.16 1196.54 1109.09 C 1202.03 1100.48 1208.41 1097.44 1217.87 1095.13 z"/>
<path transform="translate(0,0)" fill="url(#Gradient1)" d="M 803.343 1067.3 C 819.915 1065.62 836.529 1070.04 850.076 1079.74 C 915.413 1126.16 905.968 1272.94 815.236 1286.76 C 700.96 1294.85 697.24 1082.2 803.343 1067.3 z"/>
<path transform="translate(0,0)" fill="rgb(255,255,255)" d="M 826.737 1095.14 C 833.447 1094.75 840.105 1096.53 845.727 1100.21 C 869.212 1115.67 864.152 1154.37 832.476 1160.91 C 816.674 1160.88 804.947 1152.93 800.687 1137.28 C 798.169 1128.08 799.492 1118.25 804.355 1110.04 C 809.857 1100.9 816.831 1097.47 826.737 1095.14 z"/>
<path transform="translate(0,0)" fill="rgb(25,24,24)" d="M 1485.38 703.711 C 1534.52 715.459 1527.52 701.76 1566.73 743.156 C 1625.2 804.881 1652.69 867.199 1673.83 948.048 C 1655.27 948.024 1642.54 947.428 1624.23 951.568 C 1600.47 853.388 1555.16 775.86 1485.38 703.711 z"/>
<path transform="translate(0,0)" fill="rgb(253,126,51)" d="M 971.947 1669.39 C 980.645 1670.86 989.45 1672.23 998.028 1674.25 C 986.783 1673.53 975.552 1672.61 964.339 1671.49 C 967.972 1671.14 968.712 1671.26 971.947 1669.39 z"/>
<path transform="translate(0,0)" fill="rgb(252,174,117)" d="M 1130.48 1662.53 C 1124.76 1663.48 1120.91 1664.26 1115.04 1664.2 C 1115.11 1664.18 1115.18 1664.17 1115.25 1664.16 C 1117.63 1661.99 1124.62 1661.16 1128.3 1660.43 L 1130.48 1662.53 z"/>
</svg>